<?xml version="1.0" encoding="utf-8"?><!-- Uploaded to: SVG Repo, www.svgrepo.com, Generator: SVG Repo Mixer Tools -->
<svg width="800px" height="800px" viewBox="0 -4.29 70 70" xmlns:dc="http://purl.org/dc/elements/1.1/" xmlns:cc="http://creativecommons.org/ns#" xmlns:rdf="http://www.w3.org/1999/02/22-rdf-syntax-ns#" xmlns="http://www.w3.org/2000/svg">
    <metadata>
        <rdf:RDF>
            <cc:Work>
                <dc:subject>
                    Data
                </dc:subject>
                <dc:identifier>
                    backup-service
                </dc:identifier>
                <dc:title>
                    Backup Service
                </dc:title>
                <dc:format>
                    image/svg+xml
                </dc:format>
                <dc:publisher>
                    Amido Limited
                </dc:publisher>
                <dc:creator>
                    Richard Slater
                </dc:creator>
                <dc:type rdf:resource="http://purl.org/dc/dcmitype/StillImage"/>
            </cc:Work>
        </rdf:RDF>
    </metadata>
    <path d="m -108.53016,532.97394 c -5.32197,-0.83886 -9.58346,-4.77549 -10.93852,-10.10465 -0.39406,-1.54976 -0.36729,-4.76371 0.0519,-6.22711 0.9639,-3.3653 2.98461,-5.91567 6.01087,-7.58639 l 0.68749,-0.37955 -0.0446,-1.18778 c -0.11958,-3.18107 1.08589,-6.90628 3.08708,-9.5399 1.87354,-2.46562 4.70362,-4.47264 7.59022,-5.38279 4.637359,-1.46217 9.363209,-0.81206 13.498389,1.85689 0.49155,0.31726 1.57472,1.26541 2.40703,2.107 l 1.51329,1.53016 0.75544,-0.38282 c 3.10468,-1.57331 6.99572,-1.66495 10.14094,-0.23885 4.146842,1.88027 6.908112,6.04621 6.908112,10.42231 l 0,1.09011 0.93429,0.55505 c 4.02201,2.38944 6.2783,7.10788 5.66711,11.85127 -0.40088,3.11104 -1.64386,5.65068 -3.84098,7.8478 -1.76977,1.76977 -3.6389,2.84066 -6.18155,3.54162 l -1.322582,0.36461 -17.87485,0.024 c -14.399069,0.0194 -18.103159,-0.0119 -19.048999,-0.16103 z m 19.135679,-6.04905 c 3.47903,-0.70207 6.64772,-3.28215 8.21571,-6.68959 0.9022,-1.96061 1.04429,-2.65543 1.03598,-5.06594 -0.007,-1.95288 -0.0395,-2.22904 -0.39217,-3.29997 -0.75638,-2.29714 -1.77044,-3.91495 -3.3991,-5.42283 -2.28863,-2.11893 -4.91971,-3.12636 -8.15957,-3.12429 -4.72476,0.003 -8.767029,2.59616 -10.785049,6.91865 -0.74563,1.59709 -0.97102,2.53923 -1.06482,4.45085 -0.16647,3.39283 0.93789,6.38263 3.2421,8.77722 3.002649,3.12044 6.966149,4.33186 11.306919,3.4559 z m -3.18808,-1.55919 c -0.66458,-0.53814 -0.23984,-1.67141 0.62643,-1.67141 0.55019,0 0.93957,0.40849 0.93957,0.98569 0,0.49491 -0.44451,0.93929 -0.93957,0.93929 -0.17231,0 -0.4542,-0.11411 -0.62643,-0.25357 z m 3.6436,-4.98083 c -0.25846,-0.0751 -1.25117,-0.92214 -2.5781,-2.19977 l -2.15781,-2.07763 0,-3.12631 c 0,-3.06457 0.006,-3.13204 0.30937,-3.41612 0.49087,-0.45983 1.01767,-0.60664 1.60718,-0.4479 1.0017,0.26973 1.03446,0.37537 1.08182,3.4882 l 0.0421,2.77027 1.63127,1.65117 c 1.69872,1.71944 1.96573,2.16476 1.65083,2.75316 -0.14253,0.26631 -0.93133,0.78784 -1.11844,0.73947 -0.0264,-0.007 -0.2371,-0.0674 -0.46826,-0.13454 z m -13.193689,-4.52979 c -0.35481,-0.39206 -0.32382,-1.08168 0.0627,-1.39464 0.4305,-0.3486 0.91868,-0.31757 1.32017,0.0839 0.41231,0.4123 0.42676,0.74942 0.0525,1.22519 -0.35656,0.4533 -1.06436,0.49547 -1.43536,0.0855 z m 18.917669,-0.0855 c -0.15674,-0.19926 -0.28498,-0.46935 -0.28498,-0.6002 0,-0.13085 0.12824,-0.40094 0.28498,-0.6002 0.54568,-0.69372 1.68584,-0.30349 1.68584,0.577 0,0.94618 -1.10928,1.35638 -1.68584,0.6234 z m -9.43025,-9.4019 c -0.35481,-0.39205 -0.32382,-1.08168 0.0627,-1.39464 0.64492,-0.52222 1.566,-0.1189 1.566,0.68572 0,0.5772 -0.38938,0.98569 -0.93957,0.98569 -0.26494,0 -0.53781,-0.10959 -0.6891,-0.27677 z m 32.743632,4.22285 c -0.75557,-1.20405 -2.34881,-3.01397 -3.42243,-3.88789 -0.43596,-0.35486 -0.81729,-0.77609 -0.84742,-0.93606 -0.78009,-4.14208 -2.34071,-7.1868 -4.98118,-9.71804 -2.953742,-2.83155 -6.266872,-4.31745 -10.454042,-4.68851 l -1.81291,-0.16065 0.3885,-0.56177 c 0.55447,-0.80175 2.13804,-2.28993 3.07344,-2.8883 1.70981,-1.09375 4.12144,-1.88459 6.36766,-2.08814 l 1.008562,-0.0914 0.0376,2.47928 0.0376,2.47928 4.43618,-3.76279 4.43616,-3.7628 -4.43616,-3.80691 -4.43618,-3.80691 -0.0688,2.531 -0.0688,2.531 -1.306242,0.10746 c -4.601,0.37852 -9.07733,2.34697 -12.10639,5.32374 -1.22023,1.19917 -1.99268,2.21909 -2.76479,3.65053 -0.30392,0.56344 -0.5936,1.02311 -0.64375,1.02149 -0.0502,-0.002 -0.5243,-0.28469 -1.05367,-0.62906 -1.93748,-1.26035 -4.61163,-2.35304 -7.08119,-2.89346 -0.93421,-0.20443 -1.75222,-0.25575 -4.07639,-0.25575 l -2.907659,0 0.0671,-0.48125 c 0.45171,-3.23763 2.530899,-6.43984 5.299379,-8.16172 3.52782,-2.19415 7.81844,-2.44275 11.3995,-0.66048 l 1.05081,0.52298 1.06192,-1.15099 c 1.40417,-1.52195 2.60401,-2.47034 4.19265,-3.31399 1.46927,-0.78026 2.98243,-1.32285 4.52541,-1.62274 1.36711,-0.2657 4.175482,-0.25875 5.595892,0.0139 4.72201,0.90623 8.7259,3.85671 10.87875,8.01661 1.21319,2.34421 1.68365,4.18401 1.76604,6.90647 l 0.052,1.71874 0.882,0.49597 c 2.78512,1.56614 4.62484,3.72529 5.61103,6.58522 0.43494,1.26139 0.45051,1.38177 0.45327,3.50622 0.003,2.59915 -0.16806,3.41541 -1.15528,5.49995 -1.44703,3.05545 -4.06688,5.4044 -7.30619,6.5507 l -1.07089,0.37896 -0.62115,-0.98985 z" fill="#00bcf2" transform="translate(119.748 -471.713)"/>
</svg>