<?xml version="1.0" encoding="utf-8"?><!-- Uploaded to: SVG Repo, www.svgrepo.com, Generator: SVG Repo Mixer Tools -->
<svg width="800px" height="800px" viewBox="0 -6.13 82.251 82.251" xmlns:dc="http://purl.org/dc/elements/1.1/" xmlns:cc="http://creativecommons.org/ns#" xmlns:rdf="http://www.w3.org/1999/02/22-rdf-syntax-ns#" xmlns="http://www.w3.org/2000/svg">
    <metadata>
        <rdf:RDF>
            <cc:Work>
                <dc:subject>
                    Miscellaneous
                </dc:subject>
                <dc:identifier>
                    healthy
                </dc:identifier>
                <dc:title>
                    Healthy
                </dc:title>
                <dc:format>
                    image/svg+xml
                </dc:format>
                <dc:publisher>
                    Amido Limited
                </dc:publisher>
                <dc:creator>
                    Richard Slater
                </dc:creator>
                <dc:type rdf:resource="http://purl.org/dc/dcmitype/StillImage"/>
            </cc:Work>
        </rdf:RDF>
    </metadata>
    <path d="m -85.210143,553.2901 c -5.89288,-3.2123 -14.57909,-9.9451 -21.247547,-16.4692 -10.28659,-10.064 -16.34585,-19.4683 -18.20484,-28.255 -0.47799,-2.2593 -0.53035,-6.8229 -0.10106,-8.8092 0.80981,-3.7471 2.47562,-7.0217 5.24131,-10.3035 2.01949,-2.3964 5.20016,-4.3883 8.20125,-5.1363 1.92491,-0.4797 5.76236,-0.516 7.80085,-0.074 6.237547,1.3533 12.605017,5.3986 18.137087,11.5226 0.9001,0.9965 1.69883,1.7732 1.77496,1.7262 0.0761,-0.047 0.56741,-0.6491 1.09174,-1.3379 4.44649,-5.8412 10.96499,-10.1012 17.77222,-11.6147 1.71984,-0.3823 6.74493,-0.3751 8.27608,0.012 4.01902,1.0159 7.00857,3.145 9.65489,6.8761 2.05578,2.8985 3.24303,5.7298 3.79535,9.051 0.3642,2.19 0.2506,5.9713 -0.25004,8.3229 -1.62572,7.6364 -6.86543,16.2896 -15.11345,24.9596 -6.27197,6.5928 -14.50516,13.4505 -21.45559,17.871 -1.44228,0.9173 -3.95819,2.3113 -4.15349,2.3013 -0.0244,0 -0.57329,-0.2906 -1.21972,-0.643 z m 9.83171,-35.3796 c 6.78132,-8.7088 9.50752,-12.3257 9.50752,-12.6138 0,-0.3244 -0.37318,-0.6934 -1.89712,-1.876 -1.90893,-1.4813 -2.38778,-1.6874 -2.84923,-1.2259 -0.13674,0.1367 -3.60249,4.5687 -7.70165,9.8489 -4.09917,5.2801 -7.50179,9.6002 -7.56138,9.6002 -0.0596,0 -2.12691,-2.1796 -4.59403,-4.8437 -2.63218,-2.8423 -4.60395,-4.8437 -4.77191,-4.8437 -0.28147,0 -3.66157,2.9975 -3.93889,3.493 -0.0796,0.1423 -0.0812,0.3801 -0.004,0.5417 0.0761,0.1585 3.18867,3.5711 6.91679,7.5835 l 6.7784,7.2954 0.30378,-0.3748 c 0.16707,-0.2062 4.58215,-5.8693 9.81129,-12.5848 z" fill="#00bcf2" transform="translate(125.056 -483.933)"/>
</svg>