<?xml version="1.0" encoding="UTF-8" standalone="no"?>
<!DOCTYPE svg PUBLIC "-//W3C//DTD SVG 1.1//EN"
 "http://www.w3.org/Graphics/SVG/1.1/DTD/svg11.dtd">
<!-- Generated by graphviz version 14.1.2 (20260124.0452)
 -->
<!-- Title: DeltaIntegrationTestCoverage Pages: 1 -->
<svg width="431pt" height="516pt"
 viewBox="0.00 0.00 431.00 516.00" xmlns="http://www.w3.org/2000/svg" xmlns:xlink="http://www.w3.org/1999/xlink">
<g id="graph0" class="graph" transform="scale(1 1) rotate(0) translate(14.4 501.39)">
<title>DeltaIntegrationTestCoverage</title>
<!-- table -->
<g id="node1" class="node">
<title>table</title>
<path fill="#f6f8fa" stroke="#57606a" d="M12,-368.89C12,-368.89 210.78,-368.89 210.78,-368.89 216.78,-368.89 222.78,-374.89 222.78,-380.89 222.78,-380.89 222.78,-474.49 222.78,-474.49 222.78,-480.49 216.78,-486.49 210.78,-486.49 210.78,-486.49 12,-486.49 12,-486.49 6,-486.49 0,-480.49 0,-474.49 0,-474.49 0,-380.89 0,-380.89 0,-374.89 6,-368.89 12,-368.89"/>
<text xml:space="preserve" text-anchor="middle" x="111.39" y="-470.28" font-family="Helvetica,sans-Serif" font-size="11.00">Prepared Table</text>
<polyline fill="none" stroke="#57606a" points="0,-462.97 222.78,-462.97"/>
<text xml:space="preserve" text-anchor="middle" x="111.39" y="-446.76" font-family="Helvetica,sans-Serif" font-size="11.00">&#45;&#45;&#45;</text>
<polyline fill="none" stroke="#57606a" points="0,-439.45 222.78,-439.45"/>
<text xml:space="preserve" text-anchor="middle" x="111.39" y="-423.24" font-family="Helvetica,sans-Serif" font-size="11.00">Initial table state</text>
<polyline fill="none" stroke="#57606a" points="0,-415.93 222.78,-415.93"/>
<text xml:space="preserve" text-anchor="middle" x="111.39" y="-399.72" font-family="Helvetica,sans-Serif" font-size="11.00">Schema and seed rows</text>
<polyline fill="none" stroke="#57606a" points="0,-392.41 222.78,-392.41"/>
<text xml:space="preserve" text-anchor="middle" x="111.39" y="-376.2" font-family="Helvetica,sans-Serif" font-size="11.00">Format, partitioning, properties, and history</text>
</g>
<!-- compatibility -->
<g id="node3" class="node">
<title>compatibility</title>
<path fill="#fff8c5" stroke="#57606a" d="M207.74,-310.26C207.74,-310.26 158.16,-298.02 158.16,-298.02 152.33,-296.58 152.33,-293.7 158.16,-292.26 158.16,-292.26 207.74,-280.02 207.74,-280.02 213.57,-278.58 225.21,-278.58 231.04,-280.02 231.04,-280.02 280.62,-292.26 280.62,-292.26 286.45,-293.7 286.45,-296.58 280.62,-298.02 280.62,-298.02 231.04,-310.26 231.04,-310.26 225.21,-311.7 213.57,-311.7 207.74,-310.26"/>
<text xml:space="preserve" text-anchor="middle" x="219.39" y="-290.69" font-family="Helvetica,sans-Serif" font-size="11.00">Compatible?</text>
</g>
<!-- table&#45;&gt;compatibility -->
<g id="edge1" class="edge">
<title>table&#45;&gt;compatibility</title>
<path fill="none" stroke="#57606a" d="M159.39,-368.67C173.85,-351.18 188.9,-333 200.31,-319.21"/>
<polygon fill="#57606a" stroke="#57606a" points="202.93,-321.53 206.61,-311.59 197.53,-317.07 202.93,-321.53"/>
<text xml:space="preserve" text-anchor="middle" x="216.71" y="-336.89" font-family="Helvetica,sans-Serif" font-size="10.00">initial condition</text>
</g>
<!-- test_case -->
<g id="node2" class="node">
<title>test_case</title>
<path fill="#f6f8fa" stroke="#57606a" d="M266.88,-380.65C266.88,-380.65 389.9,-380.65 389.9,-380.65 395.9,-380.65 401.9,-386.65 401.9,-392.65 401.9,-392.65 401.9,-462.73 401.9,-462.73 401.9,-468.73 395.9,-474.73 389.9,-474.73 389.9,-474.73 266.88,-474.73 266.88,-474.73 260.88,-474.73 254.88,-468.73 254.88,-462.73 254.88,-462.73 254.88,-392.65 254.88,-392.65 254.88,-386.65 260.88,-380.65 266.88,-380.65"/>
<text xml:space="preserve" text-anchor="middle" x="328.39" y="-458.52" font-family="Helvetica,sans-Serif" font-size="11.00">Test Case</text>
<polyline fill="none" stroke="#57606a" points="254.88,-451.21 401.9,-451.21"/>
<text xml:space="preserve" text-anchor="middle" x="328.39" y="-435" font-family="Helvetica,sans-Serif" font-size="11.00">&#45;&#45;&#45;</text>
<polyline fill="none" stroke="#57606a" points="254.88,-427.69 401.9,-427.69"/>
<text xml:space="preserve" text-anchor="middle" x="328.39" y="-411.48" font-family="Helvetica,sans-Serif" font-size="11.00">Action</text>
<polyline fill="none" stroke="#57606a" points="254.88,-404.17 401.9,-404.17"/>
<text xml:space="preserve" text-anchor="middle" x="328.39" y="-387.96" font-family="Helvetica,sans-Serif" font-size="11.00">Expected observable result</text>
</g>
<!-- test_case&#45;&gt;compatibility -->
<g id="edge2" class="edge">
<title>test_case&#45;&gt;compatibility</title>
<path fill="none" stroke="#57606a" d="M293.99,-380.24C282.67,-365.54 269.8,-349.4 257.39,-335.14 252.42,-329.43 246.84,-323.48 241.53,-317.99"/>
<polygon fill="#57606a" stroke="#57606a" points="244.08,-315.6 234.57,-310.94 239.1,-320.51 244.08,-315.6"/>
<text xml:space="preserve" text-anchor="middle" x="312.05" y="-336.89" font-family="Helvetica,sans-Serif" font-size="10.00">action and assertions</text>
</g>
<!-- executable_set -->
<g id="node4" class="node">
<title>executable_set</title>
<path fill="#ddf4ff" stroke="#57606a" d="M96.75,-150.83C96.75,-150.83 342.03,-150.83 342.03,-150.83 348.03,-150.83 354.03,-156.83 354.03,-162.83 354.03,-162.83 354.03,-209.39 354.03,-209.39 354.03,-215.39 348.03,-221.39 342.03,-221.39 342.03,-221.39 96.75,-221.39 96.75,-221.39 90.75,-221.39 84.75,-215.39 84.75,-209.39 84.75,-209.39 84.75,-162.83 84.75,-162.83 84.75,-156.83 90.75,-150.83 96.75,-150.83"/>
<text xml:space="preserve" text-anchor="middle" x="219.39" y="-205.18" font-family="Helvetica,sans-Serif" font-size="11.00">Executable Test Set</text>
<polyline fill="none" stroke="#57606a" points="84.75,-197.87 354.03,-197.87"/>
<text xml:space="preserve" text-anchor="middle" x="219.39" y="-181.66" font-family="Helvetica,sans-Serif" font-size="11.00">&#45;&#45;&#45;</text>
<polyline fill="none" stroke="#57606a" points="84.75,-174.35 354.03,-174.35"/>
<text xml:space="preserve" text-anchor="middle" x="219.39" y="-158.14" font-family="Helvetica,sans-Serif" font-size="11.00">Every compatible Prepared Table and Test Case pair</text>
</g>
<!-- compatibility&#45;&gt;executable_set -->
<g id="edge3" class="edge">
<title>compatibility&#45;&gt;executable_set</title>
<path fill="none" stroke="#57606a" d="M219.39,-276.94C219.39,-264.96 219.39,-248.38 219.39,-232.72"/>
<polygon fill="#57606a" stroke="#57606a" points="222.89,-233.07 219.39,-223.07 215.89,-233.07 222.89,-233.07"/>
<text xml:space="preserve" text-anchor="middle" x="255.01" y="-245.64" font-family="Helvetica,sans-Serif" font-size="10.00">compatible pairs</text>
</g>
<!-- local -->
<g id="node5" class="node">
<title>local</title>
<path fill="#dafbe1" stroke="#57606a" d="M84.12,-12.26C84.12,-12.26 190.65,-12.26 190.65,-12.26 196.65,-12.26 202.65,-18.26 202.65,-24.26 202.65,-24.26 202.65,-70.82 202.65,-70.82 202.65,-76.82 196.65,-82.82 190.65,-82.82 190.65,-82.82 84.12,-82.82 84.12,-82.82 78.12,-82.82 72.12,-76.82 72.12,-70.82 72.12,-70.82 72.12,-24.26 72.12,-24.26 72.12,-18.26 78.12,-12.26 84.12,-12.26"/>
<text xml:space="preserve" text-anchor="middle" x="137.39" y="-66.61" font-family="Helvetica,sans-Serif" font-size="11.00">Embedded OpenHouse</text>
<polyline fill="none" stroke="#57606a" points="72.12,-59.3 202.65,-59.3"/>
<text xml:space="preserve" text-anchor="middle" x="137.39" y="-43.09" font-family="Helvetica,sans-Serif" font-size="11.00">&#45;&#45;&#45;</text>
<polyline fill="none" stroke="#57606a" points="72.12,-35.78 202.65,-35.78"/>
<text xml:space="preserve" text-anchor="middle" x="137.39" y="-19.57" font-family="Helvetica,sans-Serif" font-size="11.00">Local tests</text>
</g>
<!-- executable_set&#45;&gt;local -->
<g id="edge4" class="edge">
<title>executable_set&#45;&gt;local</title>
<path fill="none" stroke="#57606a" d="M198.7,-150.65C188.16,-133.1 175.23,-111.56 163.96,-92.8"/>
<polygon fill="#57606a" stroke="#57606a" points="167,-91.06 158.85,-84.29 161,-94.66 167,-91.06"/>
<text xml:space="preserve" text-anchor="middle" x="203.55" y="-118.83" font-family="Helvetica,sans-Serif" font-size="10.00">same set</text>
</g>
<!-- acceptance -->
<g id="node6" class="node">
<title>acceptance</title>
<path fill="#dafbe1" stroke="#57606a" d="M246.62,-0.5C246.62,-0.5 356.15,-0.5 356.15,-0.5 362.15,-0.5 368.15,-6.5 368.15,-12.5 368.15,-12.5 368.15,-82.58 368.15,-82.58 368.15,-88.58 362.15,-94.58 356.15,-94.58 356.15,-94.58 246.62,-94.58 246.62,-94.58 240.62,-94.58 234.62,-88.58 234.62,-82.58 234.62,-82.58 234.62,-12.5 234.62,-12.5 234.62,-6.5 240.62,-0.5 246.62,-0.5"/>
<text xml:space="preserve" text-anchor="middle" x="301.39" y="-78.37" font-family="Helvetica,sans-Serif" font-size="11.00">li&#45;openhouse</text>
<polyline fill="none" stroke="#57606a" points="234.62,-71.06 368.15,-71.06"/>
<text xml:space="preserve" text-anchor="middle" x="301.39" y="-54.85" font-family="Helvetica,sans-Serif" font-size="11.00">&#45;&#45;&#45;</text>
<polyline fill="none" stroke="#57606a" points="234.62,-47.54 368.15,-47.54"/>
<text xml:space="preserve" text-anchor="middle" x="301.39" y="-31.33" font-family="Helvetica,sans-Serif" font-size="11.00">Airflow acceptance tests</text>
<polyline fill="none" stroke="#57606a" points="234.62,-24.02 368.15,-24.02"/>
<text xml:space="preserve" text-anchor="middle" x="301.39" y="-7.81" font-family="Helvetica,sans-Serif" font-size="11.00">Real clusters</text>
</g>
<!-- executable_set&#45;&gt;acceptance -->
<g id="edge5" class="edge">
<title>executable_set&#45;&gt;acceptance</title>
<path fill="none" stroke="#57606a" d="M240.08,-150.65C248.49,-136.64 258.42,-120.1 267.82,-104.46"/>
<polygon fill="#57606a" stroke="#57606a" points="270.65,-106.53 272.8,-96.16 264.65,-102.93 270.65,-106.53"/>
<text xml:space="preserve" text-anchor="middle" x="278.18" y="-118.83" font-family="Helvetica,sans-Serif" font-size="10.00">same set</text>
</g>
</g>
</svg>
